<svg viewBox="181.32032 0 440.8816 112.6555614973262" xmlns="http://www.w3.org/2000/svg" data-name="Layer 2" id="Layer_2" style="max-height: 500px" width="440.8816" height="112.6555614973262">
  <defs>
    <style>
      .cls-1 {
        fill: #213b73;
      }
    </style>
  </defs>
  <g data-name="Layer 1" id="Layer_1-2">
    <g>
      <path d="m120.64,116.39H22.22c-13.29,0-23.61-11.59-22.07-24.78L8.52,19.66C9.82,8.45,19.31,0,30.58,0h68.98v33.9c0,14.91-12.13,27.04-27.04,27.04-17.57,0-27.04-13.93-27.04-27.04,0-3.36-2.72-6.08-6.08-6.08s-6.08,2.72-6.08,6.08c0,10.3,3.79,19.98,10.67,27.27,7.27,7.7,17.4,11.94,28.53,11.94,21.62,0,39.21-17.59,39.21-39.21V0h.55c11.28,0,20.77,8.45,22.07,19.66l8.36,71.95c1.53,13.2-8.78,24.78-22.07,24.78Z" class="cls-1"/>
      <g>
        <path d="m202.71,60.09v1.68c.12,5.62.7,9.58,1.74,11.86,1.03,2.29,3.25,3.43,6.65,3.43s5.59-1.25,6.67-3.75c.65-1.48.97-3.98.97-7.5V14.97h15.19v50.6c0,6.18-1.04,11.08-3.13,14.7-3.54,6.12-9.92,9.17-19.14,9.17s-15.42-2.47-18.57-7.42-4.73-11.7-4.73-20.24v-1.68h14.35Z" class="cls-1"/>
        <path d="m262.87,33.91v32.4c0,3.06.36,5.36,1.08,6.9,1.28,2.73,3.78,4.09,7.51,4.09,4.78,0,8.05-1.94,9.81-5.82.92-2.1,1.37-4.88,1.37-8.33v-29.25h14.25v53.75h-13.66v-7.59c-.13.17-.46.66-.98,1.48-.52.82-1.15,1.55-1.87,2.17-2.2,1.97-4.32,3.32-6.37,4.04-2.05.72-4.45,1.08-7.21,1.08-7.93,0-13.28-2.86-16.03-8.58-1.54-3.16-2.31-7.81-2.31-13.96v-32.4h14.4Z" class="cls-1"/>
        <path d="m321.46,70.5c.3,2.5.94,4.27,1.93,5.33,1.75,1.87,4.99,2.81,9.71,2.81,2.78,0,4.98-.41,6.62-1.23,1.64-.82,2.45-2.05,2.45-3.7s-.66-2.78-1.98-3.6c-1.32-.82-6.22-2.24-14.7-4.24-6.11-1.51-10.41-3.4-12.91-5.67-2.5-2.24-3.75-5.46-3.75-9.67,0-4.96,1.95-9.23,5.86-12.8s9.4-5.35,16.48-5.35,12.2,1.34,16.43,4.02c4.23,2.68,6.66,7.31,7.29,13.88h-14.05c-.2-1.81-.71-3.24-1.53-4.29-1.55-1.91-4.19-2.86-7.91-2.86-3.07,0-5.25.48-6.55,1.43-1.3.95-1.95,2.07-1.95,3.35,0,1.61.69,2.78,2.08,3.5,1.38.76,6.28,2.06,14.67,3.9,5.6,1.32,9.8,3.3,12.59,5.97,2.76,2.7,4.14,6.07,4.14,10.11,0,5.33-1.99,9.67-5.96,13.04-3.97,3.37-10.11,5.05-18.41,5.05s-14.72-1.78-18.75-5.35c-4.04-3.57-6.05-8.11-6.05-13.64h14.25Z" class="cls-1"/>
        <path d="m361.21,44.41v-10.01h7.5v-14.99h13.91v14.99h8.73v10.01h-8.73v28.41c0,2.2.28,3.58.84,4.12.56.54,2.27.81,5.13.81.43,0,.88,0,1.36-.03.48-.02.94-.04,1.41-.07v10.5l-6.66.25c-6.64.23-11.18-.92-13.61-3.45-1.58-1.61-2.37-4.09-2.37-7.45v-33.09h-7.5Z" class="cls-1"/>
        <path d="m454.32,14.97v12.87h-21.75v59.82h-15.29V27.84h-21.85v-12.87h58.88Z" class="cls-1"/>
        <path d="m489.65,35c3.75,1.68,6.85,4.33,9.29,7.95,2.2,3.19,3.63,6.9,4.28,11.11.38,2.47.53,6.03.46,10.67h-39.15c.22,5.39,2.09,9.17,5.62,11.34,2.15,1.35,4.73,2.02,7.75,2.02,3.2,0,5.8-.82,7.8-2.47,1.09-.89,2.06-2.12,2.89-3.7h14.35c-.38,3.19-2.11,6.43-5.21,9.72-4.82,5.23-11.56,7.84-20.22,7.84-7.15,0-13.47-2.2-18.93-6.61s-8.2-11.58-8.2-21.52c0-9.31,2.47-16.45,7.4-21.42s11.34-7.45,19.22-7.45c4.68,0,8.89.84,12.64,2.52Zm-21.03,12.14c-1.99,2.05-3.23,4.82-3.75,8.32h24.21c-.26-3.73-1.5-6.56-3.74-8.49-2.24-1.93-5.02-2.9-8.34-2.9-3.61,0-6.4,1.02-8.39,3.07Z" class="cls-1"/>
        <path d="m554.14,36.99c3.52,2.91,5.28,7.74,5.28,14.47v36.2h-14.4v-32.7c0-2.83-.38-5-1.13-6.51-1.37-2.76-3.98-4.14-7.83-4.14-4.73,0-7.98,2.02-9.74,6.07-.91,2.14-1.37,4.87-1.37,8.19v29.1h-14.05v-53.66h13.61v7.84c1.8-2.76,3.5-4.75,5.11-5.97,2.88-2.17,6.53-3.25,10.95-3.25,5.53,0,10.06,1.46,13.58,4.36Z" class="cls-1"/>
        <path d="m611.12,34.21c2.7,1.15,4.92,2.91,6.65,5.28,1.47,2.01,2.37,4.07,2.7,6.2.33,2.12.49,5.59.49,10.39v31.59h-14.35v-32.73c0-2.9-.49-5.23-1.47-7.01-1.27-2.5-3.69-3.75-7.25-3.75s-6.49,1.24-8.4,3.73c-1.91,2.49-2.86,6.03-2.86,10.64v29.13h-14.05V15.22h14.05v25.64c2.03-3.12,4.38-5.3,7.05-6.54,2.67-1.23,5.47-1.85,8.42-1.85,3.31,0,6.31.58,9.01,1.73Z" class="cls-1"/>
      </g>
    </g>
  </g>
</svg>